<svg width="206" height="254" viewBox="0 0 206 254" fill="none" xmlns="http://www.w3.org/2000/svg">
<path d="M68.9063 120.401C67.4792 120.401 66.0417 121.073 64.8177 122.224C64.7761 122.276 64.724 122.323 64.6719 122.359C62.8594 124.229 61.7188 126.443 61.25 129C60.6667 131.552 60.8542 134.052 61.8125 136.49C62.6823 138.531 64.0886 139.839 65.7761 140.162C67.4688 140.49 69.2761 139.854 70.8802 138.323C72.7188 136.453 73.8698 134.234 74.3386 131.656C75.4532 126.234 73.4167 121.224 69.8073 120.484C69.5104 120.427 69.2084 120.401 68.9063 120.401Z" fill="#EDBEA9"/>
<path d="M74.3386 131.667C75.4531 126.24 73.4167 121.229 69.8073 120.495C69.5104 120.432 69.2084 120.401 68.9063 120.401C67.9115 120.422 66.9948 120.693 66.1511 121.219C65.1875 122.708 64.5313 124.323 64.1823 126.063C63.6094 128.615 63.7969 131.109 64.7552 133.547C65.625 135.583 67.0313 136.891 68.7188 137.219C70.0469 137.458 71.2709 137.208 72.4011 136.474C73.349 134.995 74 133.391 74.3386 131.667Z" fill="#F9E4C8"/>
<path d="M101.12 108.844L98.1354 105.953C96.6823 108.229 95.474 110.63 94.5156 113.156L95.6198 116.161L101.12 108.844Z" fill="#0062A5"/>
<path d="M108.615 117.917C108.589 117.901 108.563 117.875 108.547 117.849L102.297 110.161L96.4375 117.948C96.4063 117.995 96.3646 118.036 96.3177 118.073L102.38 134.62L108.615 117.917Z" fill="#D11E38"/>
<path d="M64.8177 120.042C65.5833 119.484 66.4218 119.094 67.3489 118.88C68.2708 118.662 69.1979 118.635 70.1302 118.802H70.1562C70.2916 105.682 73.0156 100.302 74.5937 98.2813C73.3489 97.8022 72.1302 97.2605 70.9427 96.6511C70.75 96.6876 70.4218 96.7501 69.9791 96.849C68.3593 98.1459 62.9479 103.703 64.8177 120.042Z" fill="#D11E38"/>
<path d="M121.469 90.9583C117.323 93.8489 112.839 96.0624 108.016 97.5833C106.135 98.1978 104.292 98.7291 102.479 99.1718C103.062 99.5364 109.427 103.656 112.083 110.443C114.703 107.635 121.771 99.2708 121.469 90.9583Z" fill="#1888C6"/>
<path d="M110.812 112.036C109.885 109.349 108.443 106.969 106.495 104.896L103.385 108.755L109.312 116.052L110.812 112.036Z" fill="#0062A5"/>
<path d="M105.276 103.646C104.276 102.682 103.214 101.797 102.083 100.99C101 102.078 100.01 103.245 99.125 104.5L102.188 107.474L105.276 103.646Z" fill="#D11E38"/>
<path d="M82.4375 100.375C83.6875 103.156 87.0313 109.349 93.0938 112.021C93.9479 109.818 96.5365 103.922 101.161 99.4792C97.2083 100.391 93.2083 100.859 89.1563 100.891C86.901 100.891 84.6615 100.719 82.4375 100.375Z" fill="#1888C6"/>
<path d="M43.7917 65.9948C45.4323 65.1875 47.125 65.0625 48.8698 65.6198C57.8855 59.1563 58.5625 43.5937 58.5938 42.6563C57.3698 42.1458 56.1823 41.5625 55.0261 40.9063C54.8125 40.7865 54.6719 40.6094 54.6094 40.3698C54.5417 40.1302 54.5782 39.9063 54.7032 39.6979C54.8334 39.4896 55.0157 39.3542 55.2552 39.3021C55.5 39.25 55.7188 39.2917 55.9271 39.4271C56.099 39.5365 72.9896 49.5313 88.9636 40.9844C85.3178 39.9688 82.0053 38.2969 79.0209 35.9583C78.8594 35.8333 78.7553 35.6719 78.7084 35.4688C78.6615 35.2656 78.6875 35.0729 78.7813 34.8906C78.8698 34.7083 79.0105 34.5729 79.2032 34.4896C79.3907 34.401 79.5834 34.3906 79.7813 34.4427C79.9896 34.5 99.2969 39.7917 114.474 34.6823C111.422 33.1771 108.578 31.3542 105.938 29.2083C105.755 29.0573 105.656 28.8594 105.635 28.625C105.615 28.3854 105.682 28.1771 105.833 27.9948C105.99 27.8125 106.188 27.7135 106.422 27.6927C106.662 27.6719 106.87 27.7396 107.052 27.8906C107.13 27.9583 114.885 34.4167 123.724 36.026C128.391 36.8646 131.078 38.9063 132.537 40.5677C133.281 39.7865 134.162 39.2135 135.182 38.8542C130.932 23.5469 121.615 13.6667 107.469 9.48438C100.708 7.53646 93.8334 6.97917 86.849 7.8125C86.448 7.89063 86.1459 7.75 85.9428 7.39583C85.7344 7.04687 85.7657 6.71354 86.0313 6.40104L88.2761 3.75C61.8959 9.86458 47.4115 26.5313 47.2657 26.7031C47.0938 26.9063 46.875 27.0052 46.6094 27.0052C43.1615 27.0052 41.1198 25.8958 39.9167 24.6667C40.7917 28.0625 43.8334 31.4375 43.875 31.4844C43.974 31.5833 44.0469 31.7031 44.0834 31.8385C44.125 31.974 44.1355 32.1146 44.1042 32.2552C44.0782 32.3958 44.0209 32.5208 43.9323 32.6302C43.8438 32.7396 43.7292 32.8229 43.599 32.8802C40.7396 34.1563 36.3855 33.3229 33.9584 32.6771C35.6459 35.4219 39.3125 36.8229 39.3594 36.8385C39.5677 36.9167 39.724 37.0573 39.8282 37.2552C39.9323 37.4583 39.9532 37.6667 39.8907 37.8802C34.8282 55.6979 40.4167 64.7292 42.2605 67.099C42.7188 66.6563 43.2292 66.2865 43.7917 65.9948Z" fill="#8B5E3C"/>
<path d="M133.583 42.0001C133.792 42.3282 133.969 42.6771 134.115 43.0417C135.349 46.7605 136.146 50.5678 136.51 54.4636C137.125 54.7084 137.766 54.823 138.427 54.8126C138.203 52.7449 138.354 51.1042 139.797 50.3959C140.375 50.1355 140.979 50.0105 141.615 50.0209C142.25 50.0313 142.854 50.1719 143.427 50.448C143.802 49.1042 143.854 47.7553 143.583 46.3907C143.234 44.4584 142.318 42.849 140.828 41.5678C140.229 41.0313 139.536 40.6511 138.766 40.4271C137.99 40.2084 137.203 40.1615 136.411 40.2969C135.266 40.5313 134.328 41.099 133.583 42.0001Z" fill="#F9E4C8"/>
<path d="M107.474 95.9427C118.964 92.1667 126.974 85.7708 131.297 76.9271C138.802 61.5677 132.547 43.8073 132.49 43.6302C132.339 43.2813 132.161 42.9531 131.948 42.6406C131.823 42.5417 131.734 42.4167 131.682 42.2656C130.594 40.8125 128.203 38.5937 123.417 37.7448C121.104 37.3125 118.87 36.6302 116.714 35.7031C105.229 40.2448 91.3229 38.5573 84.125 37.2031C88.2448 39.3802 91.4062 39.724 91.4479 39.7292C91.8541 39.7708 92.1093 39.9896 92.2031 40.3906C92.2968 40.7917 92.1718 41.099 91.8229 41.3229C89.2916 42.9271 86.5885 44.1406 83.7083 44.9635C80.8281 45.7917 77.8906 46.1875 74.8906 46.1615C69.8541 46.1094 64.9895 45.1667 60.2968 43.349C60.1198 46.6094 58.8645 60.099 50.375 66.651C50.401 66.8125 50.3802 66.9687 50.3125 67.1198C50.3073 67.1354 50.2968 67.1458 50.2916 67.1563C51.4323 71.0729 56.7656 86.7396 70.7239 94.5677C80.7864 100.188 93.1406 100.646 107.474 95.9427ZM90.3437 78.4896C90.4583 78.2604 90.6406 78.1094 90.8854 78.0365C96.1875 76.3854 101.234 74.1667 106.031 71.3698C106.141 71.3073 106.266 71.2708 106.391 71.2604C106.521 71.25 106.646 71.2656 106.766 71.3125C106.885 71.3542 106.995 71.4219 107.083 71.5156C107.172 71.6094 107.24 71.7135 107.281 71.8385C107.464 72.3594 111.589 84.6771 103.349 87.7448C102.469 88.0781 101.557 88.25 100.615 88.2552C95.4323 88.2552 91.7031 82.6406 90.3125 79.1927C90.2187 78.9531 90.2291 78.7187 90.3437 78.4896Z" fill="#F9E4C8"/>
<path d="M107.474 95.9427C118.964 92.1667 126.974 85.7708 131.297 76.9271C138.802 61.5677 132.547 43.8073 132.49 43.6302C132.339 43.2813 132.161 42.9531 131.948 42.6406C131.823 42.5417 131.734 42.4167 131.682 42.2656C130.594 40.8125 128.203 38.5937 123.417 37.7448C121.104 37.3125 118.87 36.6302 116.714 35.7031C105.229 40.2448 91.3229 38.5573 84.125 37.2031C88.2448 39.3802 91.4062 39.724 91.4479 39.7292C91.8541 39.7708 92.1093 39.9896 92.2031 40.3906C92.2968 40.7917 92.1718 41.099 91.8229 41.3229C89.2916 42.9271 86.5885 44.1406 83.7083 44.9635C80.8281 45.7917 77.8906 46.1875 74.8906 46.1615C69.8541 46.1094 64.9895 45.1667 60.2968 43.349C60.1198 46.6094 58.8645 60.099 50.375 66.651C50.401 66.8125 50.3802 66.9687 50.3125 67.1198C50.3073 67.1354 50.2968 67.1458 50.2916 67.1563C51.4323 71.0729 56.7656 86.7396 70.7239 94.5677C80.7864 100.188 93.1406 100.646 107.474 95.9427Z" fill="#F9E4C8"/>
<path d="M91.3594 78.5052L105.906 73.6719L106.646 79.7708L104.344 84.349L102.469 86.4844H97.6146L94.75 84.7604C94.75 84.7604 93.1198 82.375 92.7813 81.8854C92.4479 81.3906 91.3594 78.5052 91.3594 78.5052Z" fill="#231F20"/>
<path d="M100.047 81.828C97.8646 82.4947 96.4583 84.302 96.7813 85.9686L97.625 86.4738H102.495L104.37 84.3332L104.953 83.177C104.146 81.828 102.099 81.2082 100.047 81.828Z" fill="#F24062"/>
<path d="M92.7604 81.8697L106.333 77.0312L105.755 74.0989L102.474 74.8905L92.7604 78.427L91.3594 79.2447L92.7604 81.8697Z" fill="white"/>
<path d="M44.5729 67.5521C41.6823 69.0104 40.8229 73.1406 42.651 76.7604C43.5104 78.526 44.8281 79.8281 46.6146 80.6562C47.3385 81.0104 48.1042 81.1875 48.9062 81.1927C49.7135 81.1927 50.4792 81.026 51.2083 80.6823C52.0885 80.2292 52.7656 79.5781 53.2552 78.724C51.2344 75.1042 49.6615 71.3021 48.5312 67.3229C47.1823 66.849 45.8594 66.9271 44.5729 67.5521Z" fill="#EDBEA9"/>
<path d="M60.2187 137.161C59.724 135.833 59.4115 134.469 59.2917 133.057C59.1719 131.646 59.2448 130.245 59.5104 128.854C59.776 127.469 60.2292 126.141 60.8594 124.87C61.4948 123.604 62.2865 122.448 63.2344 121.396C61.4792 107.958 64.3177 101.062 66.7656 97.7395C61.2448 99.4999 52.151 103.713 49.4479 112.734C45.125 127.193 44.526 137.672 47.8802 140.088C50.3125 141.838 56.4635 141.042 60.4635 140.213C60.5312 140.187 60.6042 140.172 60.6719 140.167C61.1302 140.068 61.5625 139.969 61.9427 139.875C61.2083 139.073 60.6354 138.167 60.2187 137.161Z" fill="#D9F4F4"/>
<path d="M154.948 73.1405C145.469 66.0259 136.839 67.1041 136.151 67.203C135.568 70.8488 134.479 74.3436 132.88 77.6718C130.552 82.427 127.302 86.4426 123.135 89.7134C124.365 100.516 113.896 111.156 112.495 112.536L103.208 137.417C103.068 137.797 102.792 137.984 102.391 137.979C101.984 137.984 101.714 137.792 101.573 137.411L92.9115 113.818C84.9011 110.578 81.2084 102.114 80.3959 99.9999C79.0313 99.7134 77.6823 99.3488 76.3594 98.9113C75.3542 99.9322 71.9584 104.51 71.9011 119.448C72.8698 120 73.6719 120.729 74.3073 121.646H74.4115C76.4011 121.937 80.25 123.547 80.5 127.552C80.7552 131.557 77.4948 133.13 75.6927 133.364C75.0313 135.755 73.8282 137.823 72.0782 139.573C70.4427 141.156 68.5469 141.984 66.6823 141.984C66.2604 141.984 65.8438 141.943 65.4323 141.864C64.7969 141.734 64.1979 141.505 63.6354 141.193C63.5729 141.229 63.5052 141.26 63.4375 141.281C63.3282 141.307 62.6563 141.489 61.6354 141.719L61.5834 145.755C61.625 145.859 61.6459 145.969 61.6459 146.083C61.6407 146.193 61.6198 146.297 61.5782 146.401L61.4792 154.307C61.474 154.76 61.5157 155.219 61.599 155.667C61.6875 156.114 61.8177 156.552 61.9896 156.979C62.1615 157.401 62.375 157.807 62.625 158.187C62.8802 158.573 63.1667 158.927 63.4896 159.25C63.8125 159.578 64.1667 159.864 64.5469 160.12C64.9271 160.38 65.3282 160.594 65.7552 160.771C66.1771 160.948 66.6146 161.078 67.0625 161.172C67.5157 161.26 67.9688 161.302 68.4271 161.302L88.6823 161.26C89.4688 161.286 90.2448 161.208 91.0104 161.016C91.7761 160.828 92.4948 160.542 93.1823 160.151C93.8646 159.766 94.4844 159.286 95.0365 158.729C95.5834 158.167 96.0521 157.542 96.4271 156.854L101.354 147.88C101.516 147.588 101.771 147.443 102.104 147.443C102.443 147.443 102.693 147.588 102.859 147.88L106.688 154.349C107.354 155.489 108.177 156.51 109.156 157.401C110.13 158.297 111.219 159.021 112.422 159.583C113.62 160.146 114.875 160.521 116.188 160.698C117.5 160.88 118.813 160.864 120.12 160.646L137.255 157.896C137.859 157.802 138.422 157.604 138.948 157.297C139.474 156.989 139.927 156.599 140.302 156.125C140.682 155.646 140.958 155.114 141.135 154.536C141.307 153.953 141.375 153.359 141.323 152.755L138.432 114.984C138.427 114.885 138.432 114.786 138.464 114.693C141.104 104.818 148.042 91.9582 152.635 83.4478C153.943 81.0311 155.089 78.9374 155.906 77.2968C156.083 76.953 156.198 76.5832 156.245 76.1978C156.292 75.8072 156.271 75.427 156.188 75.0468C156.099 74.6613 155.948 74.3072 155.734 73.9843C155.521 73.6561 155.26 73.3749 154.948 73.1405Z" fill="#D9F4F4"/>
<path d="M124.297 181.771C124.906 180.354 125.719 179.063 126.724 177.901H113.729V181.771H124.297Z" fill="#EDBEA9"/>
<path d="M124.672 187.026C124.662 187.26 124.563 187.463 124.385 187.62C124.208 187.781 124 187.854 123.76 187.838C123.521 187.823 123.323 187.729 123.161 187.552C123 187.375 122.927 187.167 122.943 186.927C123.057 185.755 123.297 184.609 123.661 183.49H112.734C112.516 183.495 112.307 183.542 112.104 183.625C111.906 183.708 111.729 183.833 111.578 183.984C111.422 184.141 111.307 184.318 111.224 184.521C111.141 184.719 111.099 184.932 111.099 185.146V194.88C111.099 195.281 111.177 195.672 111.333 196.042C111.484 196.417 111.708 196.745 111.99 197.026C112.276 197.312 112.604 197.531 112.979 197.687C113.349 197.838 113.74 197.917 114.141 197.917H144.427C144.854 197.917 145.281 197.875 145.698 197.792C146.115 197.703 146.521 197.578 146.912 197.406C147.307 197.24 147.677 197.036 148.026 196.792C148.38 196.547 148.698 196.271 148.995 195.958C149.287 195.651 149.547 195.318 149.771 194.953C150 194.588 150.182 194.208 150.333 193.807C150.479 193.411 150.583 193 150.651 192.578C150.714 192.156 150.734 191.734 150.708 191.307C150.302 183.828 147.807 174.911 138.214 174.911C125.547 174.932 124.708 186.531 124.672 187.026Z" fill="#8B5E3C"/>
<path d="M78.776 127.667C78.625 125.292 76.7291 124.198 75.4323 123.714C76.3958 126.245 76.6302 128.839 76.1354 131.5C77.1718 131.188 78.9375 130.24 78.776 127.667Z" fill="#F9E4C8"/>
<path d="M62.6875 97.3334C59.9167 97.1876 55.3698 97.297 51.0469 98.9636C49.5 99.5522 48.5677 100.432 48.1875 101.646C47.4583 103.943 48.8646 106.833 49.5729 108.094C52.7188 102.578 58.0938 99.2709 62.6875 97.3334Z" fill="#D11E38"/>
<path d="M162.839 52.9897C161.651 52.8751 159.292 55.5053 158.427 57.1928C158.323 57.4063 158.156 57.5574 157.927 57.6303C157.698 57.7084 157.474 57.6928 157.26 57.5834C157.047 57.474 156.901 57.3022 156.828 57.073C156.755 56.8438 156.771 56.6251 156.885 56.4115C157.073 56.0626 157.276 55.724 157.5 55.3959C157.495 55.3751 157.495 55.3595 157.5 55.3386C158.151 53.7605 159.651 49.2449 158.766 47.3178C158.625 46.974 158.38 46.7449 158.026 46.6303C156.682 46.1928 154.547 50.2292 153.531 53.3126C153.474 53.5626 153.333 53.7501 153.109 53.8751C152.885 54.0001 152.651 54.0261 152.411 53.9428C152.167 53.8595 151.995 53.7032 151.891 53.4688C151.786 53.2345 151.792 53.0001 151.896 52.7657C151.958 52.573 152.063 52.2709 152.203 51.8959C152.552 49.2397 152.396 45.2136 150.948 44.9636C150.635 44.9167 150.365 44.9949 150.13 45.198C148.641 46.3595 147.677 50.7553 147.349 53.8022C147.354 53.8282 147.354 53.8542 147.349 53.8751C147.323 54.1667 147.292 54.448 147.271 54.6928C147.26 54.922 147.167 55.1147 147.005 55.2709C146.839 55.4272 146.641 55.5053 146.411 55.5105H146.344C146.104 55.4897 145.906 55.3907 145.75 55.2084C145.594 55.0261 145.526 54.8178 145.547 54.5782C145.547 54.4845 145.563 54.3074 145.589 54.0678C145.005 53.474 144.365 52.9532 143.656 52.5157H143.594C143.51 52.4792 143.432 52.4272 143.365 52.3647C142.438 51.8595 141.427 51.5782 140.578 51.9949C139.734 52.4115 140.141 54.7449 140.516 57.0209C140.922 59.5209 141.422 62.6147 140.922 65.5209C145.719 66.1147 150.125 67.7553 154.13 70.4584C158.479 65.4792 164.615 56.9949 163.672 54.0574C163.427 53.3647 163.156 53.0105 162.839 52.9897Z" fill="#F9E4C8"/>
<path d="M42.448 150.078C42.4844 150.224 42.6094 150.656 43.4844 150.943C47.1094 152.141 59.573 150.917 59.7032 150.901H59.7865L59.8386 146.922L43.7657 146.646C43.0365 147.609 42.1875 149.156 42.448 150.078Z" fill="#D11E38"/>
<path d="M128.573 176.162C130.844 174.453 133.401 173.5 136.234 173.307L135.057 160.005L120.391 162.359C118.912 162.599 117.432 162.62 115.943 162.412C114.458 162.208 113.037 161.787 111.682 161.151C110.323 160.516 109.094 159.693 107.984 158.682C106.88 157.672 105.948 156.521 105.188 155.229L102.135 150.073L97.9428 157.703C97.4948 158.531 96.9375 159.281 96.2761 159.958C95.6146 160.63 94.875 161.203 94.0521 161.672C93.2344 162.141 92.3646 162.49 91.448 162.714C90.5313 162.943 89.599 163.037 88.6563 163.005L69.2396 163.047L68.599 173.297C71.4427 173.49 74.0052 174.443 76.2813 176.151H91.9896C93.1511 176.151 94.2292 175.859 95.2344 175.281C96.2396 174.703 97.0313 173.912 97.6094 172.912L101.505 165.62L101.542 165.573C101.557 165.542 101.573 165.516 101.594 165.49C101.609 165.469 101.63 165.448 101.651 165.427L101.708 165.37L101.797 165.307L101.839 165.276C101.87 165.255 101.901 165.245 101.938 165.234C101.953 165.224 101.974 165.214 101.995 165.208C102.021 165.198 102.052 165.193 102.083 165.188H102.495L102.557 165.214C102.589 165.224 102.62 165.234 102.651 165.25L102.698 165.276L102.781 165.333C102.807 165.354 102.823 165.37 102.844 165.391C102.865 165.412 102.885 165.432 102.906 165.453L102.964 165.531L102.995 165.578L107.219 172.891C107.797 173.896 108.589 174.688 109.594 175.271C110.594 175.854 111.677 176.151 112.839 176.151L128.573 176.162Z" fill="#1888C6"/>
<path d="M48.1093 111.276C46.5989 112.818 44.526 115.76 44.2812 120.516C44.1354 123.224 44.0833 127.042 44.0729 130.917C44.4323 124.333 46.5 116.547 47.7916 112.234C47.8802 111.912 47.9948 111.609 48.1093 111.276Z" fill="#D11E38"/>
<path d="M46.8802 141.49C45.1094 140.224 44.2969 137.703 44.0834 134.604C44.1094 139.151 44.1719 143.229 44.2032 144.927L59.8594 145.193L59.8959 142.089C57.5625 142.557 55.2084 142.813 52.8282 142.854C50.4844 142.854 48.2865 142.51 46.8802 141.49Z" fill="#D11E38"/>
<path d="M91.125 181.771V177.88H78.1198C79.1354 179.042 79.9531 180.333 80.5729 181.75L91.125 181.771Z" fill="#EDBEA9"/>
<path d="M91.9895 183.51H81.1979C81.5625 184.63 81.802 185.776 81.9166 186.948C81.9218 187.177 81.8437 187.38 81.6875 187.552C81.526 187.719 81.3333 187.812 81.0989 187.823C80.8645 187.839 80.6614 187.771 80.4843 187.62C80.3073 187.469 80.2083 187.276 80.1875 187.042C80.1562 186.547 79.3073 174.953 66.6666 174.953C57.0677 174.953 54.5729 183.87 54.1666 191.349C54.1458 191.771 54.1666 192.198 54.2291 192.62C54.2968 193.042 54.401 193.448 54.5468 193.849C54.6979 194.25 54.8802 194.63 55.1093 194.995C55.3333 195.354 55.5937 195.693 55.8854 196C56.1823 196.307 56.5 196.583 56.8541 196.828C57.2031 197.073 57.5729 197.281 57.9635 197.448C58.3593 197.615 58.7656 197.745 59.1823 197.828C59.5989 197.917 60.0208 197.958 60.4479 197.958H90.7343C91.1406 197.958 91.526 197.88 91.901 197.729C92.2708 197.573 92.5989 197.354 92.8854 197.068C93.1718 196.781 93.3906 196.453 93.5468 196.083C93.7031 195.708 93.7812 195.323 93.7812 194.922V185.167C93.7812 184.948 93.7343 184.74 93.651 184.536C93.5677 184.333 93.4479 184.156 93.2916 184C93.1406 183.844 92.9583 183.724 92.7552 183.641C92.5573 183.557 92.3437 183.51 92.125 183.51H91.9895Z" fill="#8B5E3C"/>
<path d="M49.2032 24.724C47.9792 25.9271 47.3177 26.6771 47.2813 26.7135C47.1094 26.9167 46.8907 27.0156 46.625 27.0156C43.1771 27.0156 41.1355 25.9063 39.9323 24.6719C40.8073 28.0729 43.849 31.4427 43.8907 31.4896C43.9896 31.5937 44.0573 31.7135 44.0938 31.849C44.1355 31.9844 44.1407 32.125 44.1094 32.2604C44.0834 32.401 44.0209 32.526 43.9323 32.6354C43.8438 32.7448 43.7292 32.8281 43.599 32.8802C40.7396 34.1563 36.3855 33.3229 33.9584 32.6771C35.6459 35.4219 39.3125 36.8229 39.3594 36.8385C39.5677 36.9167 39.724 37.0573 39.8282 37.2552C39.9323 37.4583 39.9532 37.6667 39.8907 37.8802C34.8282 55.6979 40.4167 64.7292 42.2605 67.099C42.7188 66.6563 43.2292 66.2865 43.7917 65.9948C45.4323 65.1875 47.125 65.0625 48.8698 65.6198C57.8855 59.1563 58.5625 43.5937 58.5938 42.6563C57.3698 42.1458 56.1823 41.5625 55.0261 40.9063C54.8125 40.7865 54.6719 40.6094 54.6094 40.3698C54.5417 40.1302 54.5782 39.9063 54.7032 39.6979C54.8334 39.4896 55.0157 39.3542 55.2552 39.3021C55.5 39.25 55.7188 39.2917 55.9271 39.4271C56.099 39.5365 72.9896 49.5313 88.9636 40.9844C55.7032 48.1354 49.2136 24.7813 49.2032 24.724Z" fill="#6D4123"/>
<path d="M107.469 9.50513C100.708 7.55721 93.8333 6.99992 86.849 7.83325C86.4479 7.91138 86.1458 7.77075 85.9427 7.41659C85.7344 7.06242 85.7656 6.73429 86.0313 6.42179L88.276 3.77075C82.2656 5.17179 76.474 7.19784 70.901 9.85409C65.3333 12.5051 60.1094 15.7239 55.2344 19.5051C55.5625 19.3333 73.1719 9.95304 80.8021 8.34888L77.776 12.2083C77.776 12.2083 116.943 2.84888 132.536 40.5885C133.281 39.802 134.161 39.2343 135.182 38.8697C130.932 23.5624 121.615 13.6822 107.469 9.50513Z" fill="#B5805D"/>
<path d="M107.474 95.9428C63.2395 103.042 57.9479 56.3386 57.9479 56.3386L57.6198 56.198C56.1458 60.0626 53.8802 63.948 50.375 66.6511C50.401 66.8126 50.3802 66.9688 50.3125 67.1199C50.3073 67.1355 50.2968 67.1459 50.2916 67.1563C51.4323 71.073 56.7656 86.7397 70.7239 94.5678C80.7864 100.188 93.1406 100.646 107.474 95.9428Z" fill="#EDBEA9"/>
<path d="M121.5 88.7656C125.708 85.599 128.979 81.6563 131.307 76.9375C138.812 61.5729 132.563 43.8177 132.5 43.6354C132.354 43.2917 132.172 42.9635 131.958 42.651C131.833 42.5521 131.745 42.4271 131.693 42.276C130.604 40.8229 128.219 38.6042 123.427 37.75C123.417 37.7448 136.969 68.3698 121.5 88.7656Z" fill="#FFF4E6"/>
<path d="M134.104 43.0417C134.104 43.0417 141.615 41.0833 142.833 50.6979C142.833 50.6979 144.464 50.1823 144.464 49.8542C144.464 49.526 144.036 46.2135 143.745 46.0364C143.458 45.8594 140.396 40.2239 140.396 40.2239C140.396 40.2239 137.917 39.2552 137.62 39.3646C137.323 39.4792 135.167 40.0677 135.167 40.0677C134.917 40.2135 134.703 40.3958 134.516 40.6198C134.333 40.8437 134.193 41.0885 134.094 41.3594C133.995 41.6354 133.948 41.9167 133.948 42.2031C133.953 42.4896 134.005 42.7708 134.104 43.0417Z" fill="#FFF4E6"/>
<path d="M96.4219 156.859L98.1042 153.807C73.0834 147.453 86.375 109.344 86.375 109.344C83.7657 106.62 81.7761 103.5 80.3959 99.9897C79.0313 99.7032 77.6823 99.3386 76.3594 98.9011C75.3542 99.9272 71.9584 104.5 71.9011 119.443C72.8698 119.99 73.6719 120.724 74.3073 121.641H74.4115C76.4011 121.927 80.25 123.542 80.5 127.547C80.7552 131.552 77.4948 133.12 75.6927 133.359C75.0313 135.745 73.8282 137.813 72.0782 139.568C70.4427 141.151 68.5469 141.979 66.6823 141.979C66.2604 141.979 65.8438 141.938 65.4323 141.854C64.7969 141.724 64.1979 141.5 63.6354 141.182C63.5729 141.219 63.5052 141.25 63.4375 141.271C63.3282 141.302 62.6563 141.484 61.6354 141.714L61.5834 145.745C61.625 145.849 61.6459 145.958 61.6459 146.073C61.6407 146.182 61.6198 146.292 61.5782 146.391L61.4792 154.297C61.474 154.755 61.5157 155.208 61.599 155.656C61.6875 156.109 61.8177 156.547 61.9896 156.969C62.1615 157.396 62.375 157.797 62.625 158.182C62.8802 158.563 63.1667 158.917 63.4896 159.24C63.8125 159.568 64.1667 159.859 64.5469 160.115C64.9271 160.37 65.3282 160.589 65.7552 160.76C66.1771 160.938 66.6146 161.073 67.0625 161.162C67.5157 161.25 67.9688 161.297 68.4271 161.297L88.6823 161.25C89.4688 161.276 90.2448 161.198 91.0052 161.01C91.7709 160.823 92.4948 160.537 93.1771 160.146C93.8594 159.76 94.4792 159.287 95.0313 158.729C95.5782 158.167 96.0469 157.547 96.4219 156.859Z" fill="#B4DBDA"/>
<path d="M154.948 73.1406C146.115 66.5104 138.016 66.9948 136.411 67.1719L135.88 70.4323C135.88 70.4323 146.323 69.3333 152.719 77.0677C152.719 77.0677 137.536 102.51 135.849 114.188C134.161 125.865 142.104 156.01 137.255 157.88C137.859 157.786 138.422 157.589 138.948 157.281C139.474 156.974 139.927 156.583 140.302 156.104C140.682 155.63 140.958 155.099 141.135 154.521C141.307 153.938 141.375 153.344 141.323 152.74L138.432 114.964C138.427 114.865 138.432 114.771 138.464 114.677C141.104 104.802 148.042 91.9427 152.635 83.4323C153.943 81.0156 155.089 78.9219 155.906 77.2813C156.078 76.9375 156.193 76.5677 156.24 76.1823C156.286 75.7969 156.266 75.4167 156.177 75.0365C156.094 74.6563 155.943 74.3073 155.729 73.9792C155.521 73.6511 155.26 73.375 154.948 73.1406Z" fill="white"/>
<path d="M105.651 155.953C105.49 155.714 105.339 155.484 105.188 155.234L102.135 150.073L97.9427 157.703C97.4948 158.531 96.9375 159.281 96.2761 159.958C95.6146 160.63 94.875 161.203 94.0521 161.672C93.2344 162.141 92.3646 162.49 91.448 162.714C90.5313 162.943 89.599 163.037 88.6563 163.005L69.2396 163.047L68.599 173.297C71.4427 173.49 74.0052 174.443 76.2813 176.151H91.9896C93.1511 176.151 94.2292 175.859 95.2344 175.281C96.2396 174.703 97.0313 173.912 97.6094 172.912L101.505 165.62L101.542 165.573C101.557 165.542 101.573 165.516 101.594 165.49C101.609 165.469 101.63 165.448 101.651 165.427L101.708 165.37L101.797 165.307L101.839 165.276C101.87 165.255 101.901 165.245 101.938 165.234C101.953 165.224 101.974 165.214 101.995 165.208C102.021 165.198 102.052 165.193 102.083 165.188H102.495L102.557 165.214C102.589 165.224 102.62 165.234 102.651 165.25L102.698 165.276L102.781 165.333C102.807 165.354 102.823 165.37 102.844 165.391C102.865 165.412 102.885 165.432 102.906 165.453L102.964 165.531L102.995 165.578L107.219 172.891C107.797 173.896 108.589 174.688 109.594 175.271C110.594 175.854 111.677 176.151 112.839 176.151H120.912C107.464 172.552 105.651 155.953 105.651 155.953Z" fill="#0062A5"/>
<path d="M50.7135 109.62C53.677 110.526 61.3593 113.984 60.6145 125.323C61.2552 123.859 62.1302 122.552 63.2343 121.396C61.4791 107.958 64.3177 101.062 66.7656 97.7395C61.9218 99.2812 54.3333 102.708 50.7135 109.62Z" fill="#B4DBDA"/>
<path d="M60.2188 137.161C60.1875 137.083 60.1615 137 60.1302 136.922C50.2396 140.25 45.8334 135.266 45.8334 135.266C46.099 137.656 46.7709 139.318 47.8802 140.109C50.3125 141.859 56.4636 141.063 60.4636 140.229C60.5313 140.208 60.6042 140.193 60.6719 140.188C61.1302 140.089 61.5625 139.99 61.9427 139.896C61.2084 139.089 60.6302 138.177 60.2188 137.161Z" fill="#B4DBDA"/>
<path d="M141.521 60.8802L141.036 61.1406C141.172 62.6042 141.125 64.0625 140.891 65.5156C145.687 66.1042 150.089 67.75 154.099 70.4479C158.036 65.9375 163.448 58.5625 163.724 55.0156C153 72.5052 141.521 60.8802 141.521 60.8802Z" fill="#EDBEA9"/>
<path d="M55.8802 195.979C56.4739 196.604 57.1666 197.094 57.9583 197.432C58.75 197.776 59.5833 197.943 60.4479 197.938H90.7291C91.1354 197.938 91.5208 197.859 91.8958 197.708C92.2708 197.552 92.5989 197.333 92.8802 197.047C93.1666 196.766 93.3906 196.432 93.5416 196.063C93.6979 195.693 93.776 195.302 93.776 194.901V185.167C93.776 184.948 93.7343 184.74 93.651 184.537C93.5625 184.333 93.4427 184.156 93.2916 184C93.1354 183.844 92.9583 183.724 92.7552 183.641C92.5521 183.557 92.3385 183.51 92.1198 183.51H81.1927C81.5573 184.63 81.7968 185.776 81.9114 186.948C81.9166 187.177 81.8385 187.38 81.6823 187.552C81.5208 187.719 81.3281 187.813 81.0937 187.823C80.8646 187.839 80.6562 187.771 80.4791 187.62C80.3073 187.469 80.2083 187.276 80.1823 187.042C79.9896 184.969 79.3854 183.021 78.375 181.198L78.1198 181.604C78.1198 181.604 80.6406 194.714 68.6041 194.547C56.5729 194.38 55.5312 189.807 54.8698 185.979C54.4948 187.745 54.2604 189.531 54.1718 191.339C54.125 192.198 54.2448 193.031 54.5416 193.833C54.8385 194.641 55.2864 195.354 55.8802 195.979Z" fill="#7F4B28"/>
<path d="M73.5 178.797C73.5 179.135 73.3333 179.463 72.9896 179.781C72.6458 180.094 72.1615 180.37 71.5313 180.615C70.8958 180.854 70.1719 181.042 69.3438 181.172C68.5208 181.302 67.6615 181.365 66.7656 181.365C65.875 181.365 65.0156 181.302 64.1875 181.172C63.3646 181.042 62.6354 180.854 62.0052 180.615C61.375 180.37 60.8854 180.094 60.5469 179.781C60.2031 179.463 60.0312 179.135 60.0312 178.797C60.0312 178.453 60.2031 178.125 60.5469 177.812C60.8854 177.5 61.375 177.219 62.0052 176.979C62.6354 176.74 63.3646 176.552 64.1875 176.422C65.0156 176.292 65.875 176.224 66.7656 176.224C67.6615 176.224 68.5208 176.292 69.3438 176.422C70.1719 176.552 70.8958 176.74 71.5313 176.979C72.1615 177.219 72.6458 177.5 72.9896 177.812C73.3333 178.125 73.5 178.453 73.5 178.797Z" fill="#B5805D"/>
<path d="M148.979 195.979C148.385 196.604 147.693 197.089 146.896 197.432C146.104 197.771 145.271 197.943 144.406 197.938H114.125C113.719 197.938 113.333 197.859 112.958 197.708C112.583 197.552 112.255 197.333 111.969 197.047C111.688 196.766 111.464 196.432 111.313 196.063C111.156 195.693 111.078 195.302 111.078 194.901V185.167C111.078 184.948 111.12 184.74 111.203 184.542C111.286 184.339 111.406 184.162 111.557 184.005C111.708 183.849 111.885 183.729 112.089 183.646C112.286 183.557 112.495 183.516 112.714 183.51H123.651C123.281 184.63 123.042 185.776 122.927 186.948C122.917 187.182 122.99 187.391 123.151 187.573C123.307 187.75 123.505 187.844 123.745 187.859C123.984 187.875 124.193 187.802 124.375 187.641C124.552 187.479 124.646 187.281 124.661 187.042C124.854 184.969 125.453 183.021 126.469 181.198L126.729 181.625C126.729 181.625 124.214 194.734 136.245 194.568C148.276 194.401 149.323 189.828 149.984 186C150.359 187.766 150.589 189.552 150.677 191.359C150.724 192.214 150.599 193.042 150.307 193.844C150.01 194.646 149.568 195.359 148.979 195.979Z" fill="#7F4B28"/>
<path d="M144.823 178.797C144.823 179.135 144.651 179.463 144.307 179.781C143.969 180.094 143.479 180.37 142.849 180.615C142.219 180.854 141.49 181.042 140.661 181.172C139.839 181.302 138.979 181.365 138.089 181.365C137.193 181.365 136.333 181.302 135.51 181.172C134.682 181.042 133.958 180.854 133.323 180.615C132.693 180.37 132.208 180.094 131.865 179.781C131.521 179.463 131.354 179.135 131.354 178.797C131.354 178.453 131.521 178.125 131.865 177.812C132.208 177.5 132.693 177.219 133.323 176.979C133.958 176.74 134.682 176.552 135.51 176.422C136.333 176.292 137.193 176.224 138.089 176.224C138.979 176.224 139.839 176.292 140.661 176.422C141.49 176.552 142.219 176.74 142.849 176.979C143.479 177.219 143.969 177.5 144.307 177.812C144.651 178.125 144.823 178.453 144.823 178.797Z" fill="#B5805D"/>
<path d="M131.281 160.604L132.563 174.063C133.729 173.677 134.927 173.427 136.151 173.313L136.229 173.276L135.057 160L131.281 160.604Z" fill="#53C6F9"/>
<path d="M121.474 91.2969C119.828 92.2865 118.234 93.3594 116.693 94.5104L116.083 94.2292C116.083 94.2292 118.453 100.714 112.083 110.443C114.667 107.677 121.568 99.5 121.474 91.2969Z" fill="#53C6F9"/>
<path d="M61.4635 21.2291C61.4635 21.2291 67.9583 15.4895 74.6198 15.6249L72.3645 18.0103C72.3645 18.0103 78.5573 16.0312 84.25 18.0103C84.25 18.0103 72.1458 19.2551 67.5989 21.7395L69.3698 18.5364L61.4635 21.2291Z" fill="#B5805D"/>
<path d="M103.385 102.359L101.161 106.474L102.198 111.536L105.964 118.88L102.198 132.516L108.87 117.438L102.479 109.016L106.495 104.896L103.839 102.359" fill="#F24062"/>
<path d="M102.198 111.536L99.125 118.875L103.385 134.411C103.385 134.411 98.1458 126.021 97.8177 125.333C97.4895 124.651 95.6198 116.161 95.6198 116.161L102.198 111.536Z" fill="#AA0021"/>
<path d="M66.1354 102.698C66.1354 102.698 71.9427 97.6407 70.151 118.802L74.6145 98.2865L70.0625 95.7605L66.1354 102.698Z" fill="#AA0021"/>
<path d="M114.281 57.547C114.432 58.2293 114.547 58.9168 114.62 59.5991C114.693 60.2866 114.729 60.9636 114.729 61.6251C114.724 62.2866 114.682 62.922 114.604 63.5366C114.521 64.1511 114.401 64.7293 114.245 65.2709C114.089 65.8126 113.901 66.3022 113.677 66.7501C113.453 67.198 113.198 67.5886 112.911 67.9272C112.625 68.2657 112.318 68.5366 111.984 68.7501C111.646 68.9636 111.297 69.1095 110.927 69.1928C110.557 69.2761 110.172 69.2866 109.781 69.2345C109.385 69.1772 108.99 69.0574 108.594 68.8751C108.193 68.6876 107.797 68.4376 107.406 68.1251C107.01 67.8126 106.63 67.4428 106.266 67.0157C105.896 66.5886 105.547 66.1147 105.214 65.5938C104.885 65.0678 104.578 64.5053 104.297 63.9063C104.016 63.3074 103.766 62.6772 103.547 62.0261C103.328 61.3699 103.146 60.698 102.995 60.0157C102.844 59.3334 102.729 58.6459 102.656 57.9636C102.578 57.2761 102.547 56.5991 102.547 55.9376C102.552 55.2761 102.594 54.6355 102.672 54.0261C102.755 53.4116 102.875 52.8334 103.031 52.2918C103.187 51.7501 103.375 51.2605 103.599 50.8126C103.823 50.3647 104.078 49.9741 104.365 49.6355C104.651 49.297 104.958 49.0261 105.292 48.8126C105.625 48.5991 105.979 48.4532 106.349 48.3699C106.719 48.2866 107.104 48.2761 107.495 48.3282C107.891 48.3803 108.286 48.5053 108.682 48.6876C109.083 48.8751 109.479 49.1251 109.87 49.4376C110.266 49.7501 110.641 50.1199 111.01 50.547C111.38 50.9741 111.729 51.448 112.063 51.9688C112.391 52.4949 112.698 53.0574 112.979 53.6563C113.255 54.2553 113.505 54.8855 113.729 55.5366C113.948 56.1928 114.13 56.8595 114.281 57.547Z" fill="#231F20"/>
<path d="M85.3854 65.0521C85.5312 65.7344 85.6458 66.4219 85.7187 67.1094C85.7968 67.7917 85.8333 68.4687 85.8281 69.1302C85.8281 69.7917 85.7812 70.4323 85.7031 71.0469C85.6198 71.6562 85.5052 72.2344 85.3489 72.776C85.1927 73.3177 85 73.8125 84.776 74.2604C84.552 74.7031 84.2968 75.099 84.0104 75.4323C83.7291 75.7708 83.4166 76.0469 83.0833 76.2604C82.75 76.4687 82.3958 76.6198 82.026 76.6979C81.6562 76.7812 81.276 76.7917 80.8802 76.7396C80.4895 76.6875 80.0937 76.5677 79.6927 76.3802C79.2916 76.1927 78.8958 75.9427 78.5052 75.6302C78.1145 75.3177 77.7343 74.9479 77.3645 74.5208C76.9948 74.099 76.6458 73.625 76.3177 73.099C75.9843 72.5781 75.6823 72.0156 75.401 71.4115C75.1198 70.8125 74.8698 70.1875 74.651 69.5312C74.427 68.875 74.2448 68.2083 74.0937 67.5208C73.9427 66.8385 73.8333 66.1562 73.7552 65.4687C73.6823 64.7812 73.6458 64.1094 73.651 63.4427C73.651 62.7812 73.6927 62.1458 73.776 61.5312C73.8541 60.9167 73.9739 60.3385 74.1302 59.8021C74.2864 59.2604 74.4739 58.7656 74.7031 58.3177C74.927 57.8698 75.1823 57.4792 75.4635 57.1406C75.75 56.8073 76.0625 56.5312 76.3958 56.3177C76.7291 56.1042 77.0781 55.9583 77.4531 55.875C77.8229 55.7969 78.2031 55.7812 78.5989 55.8333C78.9895 55.8906 79.3854 56.0104 79.7864 56.1979C80.1875 56.3802 80.5833 56.6302 80.9739 56.9427C81.3645 57.2552 81.7448 57.625 82.1145 58.0521C82.4791 58.4792 82.8281 58.9531 83.1614 59.474C83.4895 60 83.7968 60.5625 84.0781 61.1615C84.3593 61.7604 84.6093 62.3906 84.8281 63.0469C85.0468 63.6979 85.2343 64.3698 85.3854 65.0521Z" fill="#231F20"/>
<path d="M99.6302 89.2396C100.385 89.2344 101.125 89.1407 101.854 88.9479C111.193 86.5782 108.25 73.099 108.12 72.5261C108.062 72.2761 107.953 72.0469 107.797 71.8438C107.635 71.6407 107.437 71.4792 107.208 71.3646C106.974 71.2448 106.729 71.1875 106.474 71.1771C106.214 71.1719 105.964 71.224 105.729 71.3282C100.729 73.5625 95.5364 75.2084 90.1614 76.2657C89.9218 76.3073 89.6979 76.3959 89.4895 76.5313C89.2864 76.6667 89.1198 76.8386 88.9843 77.0469C88.8541 77.2552 88.7708 77.4792 88.7343 77.724C88.6979 77.9636 88.7135 78.2032 88.776 78.4427C89.9062 82.4427 93.5156 89.2396 99.6302 89.2396ZM105.057 75.3698C105.401 78.5782 105.406 84.4844 101 85.599C96.5937 86.7188 93.9062 81.974 92.7604 79.2709C96.9687 78.3073 101.068 77.0052 105.057 75.3698Z" fill="#231F20"/>
<path d="M156.781 71.297C160.401 67.0626 167.589 57.8699 166.115 53.2397C165.38 50.9272 163.88 50.4688 163.052 50.3855C162.526 50.349 162.016 50.422 161.521 50.6095C161.729 49.0417 161.708 47.448 161.141 46.2188C160.688 45.1876 159.927 44.5001 158.854 44.1459C157.198 43.6042 155.755 44.4428 154.563 45.7813C154.104 44.0938 153.172 42.6928 151.385 42.3855C150.318 42.2032 149.365 42.4532 148.526 43.1355C147.547 43.8907 146.813 45.1772 146.26 46.6615C146.229 46.4063 146.188 46.1459 146.135 45.8907C145.672 43.349 144.458 41.2397 142.49 39.5626C141.068 38.3438 139.417 37.6928 137.536 37.6147C131.818 17.8022 118.469 10.0157 108.146 6.97925C102.458 5.34383 96.6563 4.64591 90.7396 4.88029L91.9167 3.5105C92.1615 3.22925 92.2969 2.90633 92.3281 2.53654C92.3646 2.16675 92.2865 1.823 92.099 1.50529C91.9063 1.18237 91.6458 0.947999 91.3021 0.796956C90.9635 0.651123 90.6146 0.614665 90.25 0.687581C64.0885 5.95841 48.9427 21.0782 45.8698 24.4115C41.375 24.1355 40.8542 21.4167 40.8177 21.1199C40.776 20.7136 40.6146 20.3647 40.3281 20.073C40.0365 19.7813 39.6927 19.6147 39.2813 19.5678C38.875 19.5261 38.5 19.6147 38.1563 19.8334C37.8073 20.0574 37.5729 20.3595 37.4479 20.7501C36.2552 24.3751 38.4167 28.4532 40.1563 30.948C37.526 31.0105 34.3385 30.1303 33.026 29.6772C32.3802 29.448 31.8021 29.5626 31.2917 30.0209C30.7813 30.4845 30.6042 31.047 30.7708 31.7136C31.6823 35.3542 35.0365 37.5782 37 38.5938C32.4063 56.2397 37.8177 65.5886 40.1042 68.547C38.7396 71.198 38.7188 74.7188 40.3333 77.9063C41.4688 80.2292 43.2083 81.9324 45.5573 83.0157C46.6615 83.5105 47.8125 83.7657 49.0208 83.7709C49.9635 83.7813 50.8646 83.6095 51.7396 83.2709C52.6146 82.9272 53.3906 82.4376 54.0729 81.7918C56.9792 86.4063 61.0208 91.2605 66.5938 95.0418L66.1823 95.172C66.0573 95.1147 65.9323 95.0782 65.7969 95.0522C65.4688 94.9949 57.625 93.6772 50.125 96.5418C47.2604 97.6355 46.1354 99.5001 45.7031 100.87C44.7813 103.792 46.0417 106.99 46.9792 108.776C45.1302 110.427 42.0208 114.115 41.6875 120.38C41.3073 127.568 41.5521 142 41.6146 145.198C40.7969 146.292 39.3438 148.646 39.9479 150.781C40.1927 151.651 40.8646 152.818 42.6667 153.401C44.1563 153.896 46.6823 154.063 49.3594 154.063C53.0365 154.063 56.9688 153.755 58.8906 153.583V154.276C58.8854 154.828 58.9271 155.38 59.0156 155.922C59.1042 156.469 59.2396 157.005 59.4219 157.526C59.6042 158.047 59.8333 158.552 60.099 159.031C60.3698 159.516 60.6823 159.969 61.0313 160.401C61.3802 160.828 61.7656 161.224 62.1823 161.583C62.6042 161.948 63.0469 162.271 63.526 162.552C64 162.839 64.4948 163.078 65.0104 163.276C65.5313 163.474 66.0625 163.625 66.6042 163.729L66.0625 172.354C57.349 172.651 52.2083 179.323 51.5573 191.182C51.526 191.787 51.5521 192.386 51.6458 192.984C51.7344 193.578 51.8802 194.162 52.0938 194.724C52.3021 195.292 52.5625 195.833 52.8802 196.344C53.2031 196.854 53.5677 197.333 53.9844 197.771C54.401 198.208 54.8594 198.599 55.3542 198.943C55.849 199.287 56.375 199.578 56.9323 199.818C57.4844 200.052 58.0573 200.234 58.651 200.354C59.2448 200.474 59.8385 200.537 60.4479 200.531H90.7292C91.099 200.531 91.4688 200.495 91.8333 200.422C92.1927 200.349 92.5469 200.245 92.8906 200.104C93.2292 199.958 93.5573 199.787 93.8646 199.583C94.1719 199.375 94.4583 199.141 94.7188 198.88C94.9792 198.62 95.2135 198.333 95.4219 198.026C95.625 197.719 95.8021 197.396 95.9427 197.057C96.0833 196.714 96.1927 196.359 96.2656 196C96.3385 195.636 96.375 195.271 96.375 194.901V185.167C96.375 184.302 96.1302 183.516 95.6458 182.797C95.1667 182.083 94.5208 181.563 93.724 181.234V178.583C95.0104 178.328 96.1927 177.823 97.2604 177.057C98.3281 176.297 99.1927 175.349 99.8542 174.208L99.875 174.162L102.328 169.599L104.995 174.208C105.651 175.349 106.516 176.297 107.583 177.057C108.651 177.823 109.833 178.328 111.125 178.583V181.234C110.323 181.563 109.682 182.083 109.198 182.797C108.714 183.516 108.474 184.302 108.469 185.167V194.901C108.474 195.271 108.51 195.636 108.583 196C108.656 196.365 108.76 196.714 108.901 197.057C109.047 197.396 109.219 197.724 109.427 198.031C109.63 198.339 109.865 198.625 110.13 198.886C110.391 199.146 110.677 199.38 110.984 199.583C111.292 199.792 111.62 199.964 111.964 200.104C112.302 200.245 112.656 200.354 113.021 200.427C113.385 200.5 113.75 200.531 114.125 200.531H144.406C145.01 200.531 145.609 200.474 146.203 200.349C146.792 200.229 147.365 200.052 147.922 199.813C148.474 199.573 149 199.281 149.495 198.938C149.99 198.594 150.443 198.203 150.859 197.766C151.276 197.328 151.641 196.854 151.958 196.344C152.276 195.828 152.542 195.292 152.75 194.724C152.958 194.162 153.109 193.578 153.198 192.984C153.286 192.391 153.318 191.792 153.286 191.188C152.641 179.292 147.49 172.63 138.76 172.354L137.708 160.443C138.161 160.37 138.609 160.255 139.042 160.099C139.474 159.943 139.891 159.75 140.292 159.516C140.688 159.281 141.063 159.016 141.406 158.708C141.755 158.406 142.073 158.073 142.354 157.714C142.641 157.349 142.891 156.964 143.104 156.552C143.318 156.146 143.49 155.719 143.625 155.281C143.755 154.839 143.849 154.391 143.896 153.932C143.943 153.474 143.953 153.016 143.911 152.557L141.052 115.078C143.667 105.531 150.453 92.9949 154.927 84.6772C156.245 82.2293 157.38 80.1355 158.224 78.4636C158.526 77.8699 158.719 77.2449 158.807 76.5886C158.901 75.9324 158.88 75.2761 158.745 74.6303C158.615 73.9793 158.38 73.3699 158.047 72.797C157.708 72.224 157.286 71.724 156.781 71.297ZM150.651 45.8855C150.75 45.8074 150.776 45.8126 150.792 45.8126C151.344 46.1563 151.703 48.922 151.354 51.6876C151.24 51.9949 151.146 52.2709 151.073 52.5053C150.974 52.7292 150.922 52.9636 150.922 53.2084C150.917 53.4532 150.969 53.6876 151.068 53.9115C151.161 54.1355 151.302 54.3282 151.484 54.4949C151.661 54.6563 151.87 54.7813 152.104 54.8595C152.333 54.9376 152.573 54.9636 152.818 54.9376C153.063 54.9167 153.292 54.8438 153.505 54.724C153.719 54.6042 153.896 54.448 154.042 54.2501C154.188 54.0574 154.286 53.8386 154.344 53.599C155.313 50.7136 156.974 47.7917 157.818 47.4792C157.87 47.5053 157.917 47.5522 157.979 47.6824C158.609 49.047 157.594 52.8595 156.703 55.0261C156.703 55.0365 156.703 55.047 156.703 55.0574C156.49 55.3751 156.292 55.7032 156.115 56.0365C156.01 56.2449 155.948 56.4584 155.927 56.6876C155.911 56.9167 155.938 57.1407 156.01 57.3595C156.078 57.5782 156.188 57.7709 156.339 57.948C156.49 58.1199 156.667 58.2605 156.87 58.3647C157.073 58.4688 157.292 58.5313 157.521 58.547C157.75 58.5678 157.974 58.5418 158.193 58.4688C158.411 58.3959 158.609 58.2865 158.781 58.1407C158.958 57.9897 159.099 57.8126 159.203 57.6095C159.948 56.1407 161.807 54.1667 162.646 53.8959C162.714 54.0261 162.771 54.1615 162.813 54.3074C163.479 56.4063 158.896 63.5261 153.932 69.3178C150.234 66.948 146.214 65.4272 141.87 64.7605C142.177 61.9845 141.719 59.172 141.344 56.8542C141.109 55.4324 140.766 53.3074 141.01 52.7136C141.516 52.5105 142.182 52.7136 142.839 53.047C142.958 53.1459 143.089 53.2188 143.229 53.2813H143.26C143.76 53.6042 144.229 53.9688 144.667 54.3803C144.667 54.4167 144.667 54.4584 144.667 54.4949C144.646 54.7188 144.672 54.9428 144.745 55.1615C144.818 55.3803 144.927 55.573 145.073 55.7501C145.224 55.922 145.401 56.0626 145.604 56.1667C145.813 56.2709 146.026 56.3282 146.255 56.349H146.396C146.615 56.349 146.823 56.3074 147.026 56.2292C147.229 56.1459 147.406 56.0365 147.568 55.8855C147.729 55.7397 147.854 55.5678 147.948 55.3699C148.047 55.1772 148.104 54.9688 148.12 54.7553C148.12 54.5261 148.161 54.2917 148.182 54.0626C148.182 53.974 148.203 53.8907 148.208 53.8074C148.583 50.4845 149.547 46.7501 150.651 45.8855ZM137.578 57.3855C137.693 57.3855 137.807 57.4115 137.922 57.4115C138.286 59.6563 138.698 62.1668 138.411 64.4845C138.031 64.4845 137.693 64.4845 137.385 64.4845C137.615 62.1199 137.682 59.7553 137.578 57.3855ZM142.729 46.573C142.906 47.4845 142.927 48.4063 142.792 49.3282C141.625 49.0105 140.5 49.1147 139.411 49.6407C137.797 50.4272 137.406 51.9897 137.479 53.8751L137.302 53.8334C136.917 50.0522 136.125 46.3542 134.922 42.7501C134.849 42.5417 134.755 42.3386 134.651 42.1407C135.198 41.6355 135.839 41.3074 136.573 41.1615C137.24 41.0574 137.901 41.099 138.547 41.2917C139.198 41.4845 139.776 41.8074 140.276 42.2657C141.604 43.4115 142.422 44.849 142.734 46.573H142.729ZM39.6615 36.0157C38.4792 35.5313 37.3906 34.8907 36.3906 34.0938C38.8125 34.5001 41.7292 34.6511 43.9583 33.6824C44.2135 33.573 44.4323 33.4063 44.6042 33.1928C44.7813 32.974 44.8958 32.7345 44.9531 32.4584C45.0104 32.1876 45.0052 31.9167 44.9271 31.6511C44.8542 31.3803 44.724 31.1459 44.5365 30.9376C43.474 29.7345 42.5677 28.422 41.8125 27.0053C43.3542 27.6459 44.9635 27.948 46.6302 27.9115C47.1667 27.9115 47.6042 27.7084 47.9531 27.3074C48.0938 27.1407 61.4792 11.7657 85.9115 5.27612L85.3958 5.89071C85.1615 6.16675 85.0313 6.48446 85 6.84383C84.9635 7.20321 85.0365 7.54175 85.2188 7.85425C85.3958 8.16675 85.6458 8.40112 85.974 8.56258C86.2969 8.71883 86.6406 8.76571 86.9948 8.71362C93.875 7.89592 100.641 8.45321 107.292 10.3751C120.87 14.4115 129.896 23.8386 134.146 38.3855C133.578 38.6615 133.052 39.0001 132.568 39.4011C130.906 37.7657 128.193 35.9949 123.885 35.2136C115.302 33.6667 107.698 27.3334 107.625 27.2709C107.448 27.1199 107.255 27.0053 107.031 26.9324C106.813 26.8595 106.589 26.8334 106.354 26.849C106.125 26.8647 105.906 26.9272 105.698 27.0313C105.49 27.1355 105.313 27.2813 105.161 27.4584C105.01 27.6303 104.901 27.8334 104.833 28.0522C104.76 28.2761 104.74 28.5001 104.76 28.7292C104.781 28.9636 104.844 29.1772 104.953 29.3855C105.063 29.5886 105.208 29.7657 105.385 29.9115C107.521 31.6459 109.797 33.172 112.214 34.4949C97.6563 38.4636 80.2188 33.6772 80.026 33.6355C79.6302 33.5209 79.2396 33.5522 78.8594 33.7188C78.4792 33.8855 78.1927 34.1511 78.0104 34.5209C77.8229 34.8959 77.776 35.2813 77.8698 35.6876C77.9583 36.0886 78.1719 36.4167 78.5 36.672C80.9896 38.599 83.7135 40.099 86.6719 41.1824C71.7344 47.7657 56.5677 38.8126 56.401 38.7084C56.2031 38.5938 55.9896 38.5157 55.7656 38.4792C55.5365 38.4428 55.3125 38.4532 55.0885 38.5105C54.8646 38.5626 54.6615 38.6615 54.4792 38.797C54.2917 38.9324 54.1406 39.0938 54.0208 39.2917C53.901 39.4897 53.8229 39.698 53.7917 39.9272C53.7552 40.1511 53.7656 40.3751 53.8177 40.599C53.875 40.823 53.9688 41.0261 54.1042 41.2136C54.2396 41.3959 54.4063 41.547 54.6042 41.6667C55.599 42.2501 56.6302 42.7761 57.6875 43.2449C57.5052 46.2605 56.2708 58.9063 48.6979 64.672C46.8542 64.1928 45.0833 64.3751 43.3854 65.224C43.0365 65.4011 42.7031 65.6042 42.3854 65.8334C40.3229 62.7865 36.1563 54.1251 40.7031 38.0938C40.8229 37.6667 40.7813 37.2553 40.5781 36.8595C40.3802 36.4584 40.0729 36.1824 39.6615 36.0157ZM50.8229 79.8907C50.2083 80.1772 49.5625 80.3178 48.8854 80.3074C48.2135 80.3022 47.5677 80.1459 46.9635 79.849C45.3698 79.1043 44.1875 77.9376 43.4271 76.3543C41.7917 73.1563 42.5 69.5522 44.9635 68.3126C45.8854 67.8647 46.8385 67.7657 47.8281 68.0209C48.9219 71.724 50.3958 75.2709 52.2396 78.672C51.8646 79.1928 51.3958 79.599 50.8229 79.8907ZM51.2031 67.1772C51.2031 67.1563 51.2031 67.1251 51.2031 67.099C58.8698 60.8959 60.6458 49.2449 61.0521 44.6147C65.4792 46.2292 70.0469 47.0626 74.7552 47.1042C77.8594 47.1251 80.901 46.7032 83.8802 45.8438C86.8594 44.9845 89.6563 43.7188 92.2656 42.047C92.5781 41.849 92.8021 41.5834 92.9427 41.2397C93.0781 40.9011 93.1094 40.5522 93.026 40.1928C92.9323 39.8022 92.7344 39.4792 92.4219 39.2292C99.6615 39.8699 108.729 39.698 116.708 36.6355C118.818 37.5157 121 38.172 123.25 38.5938C127.682 39.4115 129.901 41.3959 130.917 42.7032C131 42.8959 131.12 43.0678 131.276 43.2136C131.422 43.4376 131.552 43.6772 131.656 43.922C131.719 44.099 137.844 61.5365 130.5 76.5574C126.286 85.1772 118.443 91.4168 107.203 95.1147C93.1198 99.7449 80.9792 99.3074 71.1719 93.8178C57.7604 86.3178 52.4583 71.3803 51.2031 67.1772ZM109.026 114.328L104.495 108.755L106.516 106.25C107.995 107.964 109.12 109.886 109.891 112.016L109.026 114.328ZM95.4375 113.162C96.2292 111.136 97.1823 109.188 98.3021 107.323L99.9583 108.932L95.8698 114.365L95.4375 113.162ZM102.115 106.193L100.271 104.401C100.865 103.609 101.5 102.854 102.177 102.13C102.698 102.542 103.365 103.063 104.094 103.729L102.115 106.193ZM92.6354 110.844C88.1927 108.537 85.3802 104.271 83.9219 101.458C85.6563 101.656 87.3958 101.761 89.1354 101.755C92.3385 101.745 95.5156 101.448 98.6667 100.87C96.1563 103.891 94.1458 107.219 92.6354 110.844ZM102.323 111.563L107.635 118.089L102.396 132.12L97.3125 118.255L102.323 111.563ZM112.339 108.87C110.188 104.38 106.578 101.136 104.5 99.5418C105.745 99.2032 107.005 98.8282 108.281 98.4063C112.635 97.0157 116.734 95.0886 120.573 92.6199C120.042 99.2605 115.094 105.745 112.339 108.87ZM59.0052 144.313L45.0573 144.078C45.0573 143.234 45.0208 142.104 45.0052 140.792C45.3802 141.339 45.8385 141.807 46.3698 142.203C47.9583 143.339 50.3698 143.724 52.8906 143.724C54.9479 143.698 56.9896 143.505 59.0208 143.141L59.0052 144.313ZM64.7708 99.3699C62.6823 103.318 60.9479 110.026 62.3177 121.057C60.4323 123.208 59.2292 125.693 58.6979 128.5C58.0156 131.578 58.2552 134.589 59.4219 137.521C59.6927 138.162 60.026 138.771 60.4167 139.349C60.3385 139.365 60.2656 139.386 60.1927 139.412C55.9323 140.302 50.4063 140.854 48.3958 139.412C45.9427 137.641 45.5573 128.807 50.276 113.005C52.5313 105.458 59.474 101.412 64.7708 99.3699ZM62.6094 136.167C61.724 133.891 61.5521 131.568 62.0938 129.188C63.0156 124.703 66.026 121.287 68.9167 121.287C69.1563 121.287 69.3958 121.313 69.6302 121.359C72.724 121.99 74.4844 126.641 73.4896 131.516C73.0521 133.912 71.9844 135.974 70.276 137.714C68.8906 139.047 67.3542 139.615 65.9531 139.349C64.5573 139.078 63.3646 137.912 62.6094 136.146V136.167ZM76.9427 125.641C77.5417 126.214 77.8646 126.917 77.9115 127.74C78.0156 128.583 77.776 129.313 77.1979 129.932C77.3125 128.484 77.2292 127.047 76.9427 125.62V125.641ZM69.3229 117.823C67.9948 117.75 66.7292 118.005 65.5365 118.594C64.1927 104.125 68.8281 98.9532 70.3854 97.6511L70.8438 97.5574C71.6615 97.9636 72.4531 98.3334 73.2917 98.6824C71.6302 101.307 69.5365 106.792 69.3229 117.823ZM49.0052 101.912C49.3073 100.964 50.0729 100.281 51.3542 99.7761C53.7865 98.8855 56.2969 98.3751 58.8854 98.2397C55.5156 100.083 52.1094 102.693 49.651 106.328C49.0573 104.969 48.5833 103.245 49.0052 101.906V101.912ZM43.75 150.12C43.5 150.037 43.3021 149.922 43.2813 149.844C43.1615 149.412 43.625 148.386 44.2083 147.521L58.9635 147.771L58.9323 150.109C55.0573 150.464 46.4479 151.011 43.75 150.12ZM92.9115 194.901C92.9115 195.188 92.8542 195.464 92.7448 195.734C92.6354 196 92.474 196.234 92.2708 196.438C92.0677 196.641 91.8333 196.797 91.5625 196.912C91.2969 197.021 91.0208 197.073 90.7292 197.073H60.4479C60.0781 197.073 59.7135 197.037 59.349 196.964C58.9896 196.891 58.6406 196.781 58.3021 196.636C57.9635 196.49 57.6406 196.307 57.3385 196.099C57.0365 195.891 56.7604 195.651 56.5052 195.38C56.2552 195.115 56.0313 194.823 55.8333 194.511C55.6406 194.198 55.4792 193.87 55.3542 193.526C55.2292 193.177 55.1354 192.823 55.0833 192.458C55.026 192.099 55.0104 191.729 55.0313 191.365C55.4167 184.261 57.7448 175.792 66.6667 175.792C78.4531 175.792 79.2865 186.589 79.3333 187.068C79.349 187.297 79.401 187.516 79.5052 187.724C79.6042 187.927 79.7396 188.109 79.9115 188.261C80.0833 188.412 80.276 188.526 80.4948 188.604C80.7135 188.677 80.9375 188.708 81.1667 188.698C81.3958 188.682 81.6146 188.625 81.8177 188.526C82.026 188.427 82.2083 188.292 82.3594 188.12C82.5104 187.948 82.625 187.755 82.7031 187.537C82.776 187.323 82.8073 187.099 82.7969 186.87C82.7135 186.016 82.5677 185.177 82.3542 184.354H92.1354C92.3542 184.359 92.5365 184.438 92.6875 184.594C92.8385 184.745 92.9219 184.927 92.9271 185.141L92.9115 194.901ZM81.0938 180.896C80.7396 180.151 80.3281 179.438 79.8698 178.755H90.25V180.917L81.0938 180.896ZM107.995 172.484L103.807 165.234C104.443 165.516 105.135 165.787 105.906 166.052C106.089 166.115 106.271 166.146 106.464 166.146C106.885 166.146 107.26 166.005 107.583 165.734C107.901 165.458 108.099 165.115 108.167 164.698C108.234 164.281 108.161 163.891 107.943 163.531C107.729 163.167 107.422 162.917 107.021 162.781C102.078 161.104 101.219 159.136 101.208 159.109C101.229 159.167 101.24 159.198 101.24 159.198L97.9115 160.151C98.0417 160.599 98.7604 162.458 102 164.313H101.911L101.813 164.339H101.75L101.583 164.401L101.521 164.432L101.427 164.484H101.406L101.375 164.5L101.276 164.563L101.224 164.604L101.146 164.672L101.089 164.714L101.026 164.781L100.969 164.839C100.969 164.865 100.932 164.886 100.917 164.906L100.859 164.979C100.859 164.979 100.828 165.021 100.818 165.047C100.797 165.073 100.781 165.099 100.766 165.13C100.76 165.141 100.76 165.156 100.766 165.167L96.8646 172.453C96.3594 173.313 95.6771 173.995 94.8125 174.495C93.9427 174.99 93.0104 175.24 92.0104 175.245H76.5938C74.4792 173.703 72.1146 172.781 69.5156 172.474L70.0521 163.844L88.6615 163.807C89.6771 163.839 90.6823 163.734 91.6719 163.495C92.6615 163.25 93.599 162.875 94.4896 162.375C95.375 161.87 96.1771 161.261 96.8906 160.537C97.6094 159.813 98.2135 159 98.7031 158.109L102.167 151.813L104.448 155.667C105.245 157.037 106.229 158.25 107.401 159.318C108.573 160.391 109.875 161.261 111.313 161.932C112.75 162.604 114.25 163.052 115.823 163.271C117.396 163.49 118.964 163.469 120.526 163.208L134.276 161.005L135.297 172.537C132.708 172.849 130.365 173.771 128.26 175.302H112.854C111.854 175.297 110.917 175.042 110.047 174.542C109.182 174.037 108.495 173.354 107.995 172.484ZM124.979 178.755C124.521 179.438 124.109 180.151 123.755 180.896L114.594 180.917V178.755H124.979ZM149.823 191.37C149.844 191.74 149.828 192.104 149.776 192.469C149.719 192.833 149.63 193.188 149.5 193.537C149.375 193.88 149.214 194.208 149.021 194.521C148.828 194.833 148.604 195.125 148.349 195.391C148.099 195.662 147.818 195.901 147.516 196.109C147.214 196.323 146.891 196.5 146.552 196.646C146.214 196.792 145.865 196.901 145.505 196.974C145.141 197.047 144.776 197.083 144.406 197.083H114.125C113.833 197.083 113.557 197.026 113.292 196.917C113.021 196.807 112.786 196.651 112.583 196.448C112.38 196.24 112.219 196.005 112.109 195.74C112 195.474 111.943 195.198 111.943 194.906V185.167C111.953 184.953 112.031 184.766 112.182 184.615C112.339 184.464 112.521 184.38 112.74 184.375H122.505C122.286 185.203 122.135 186.042 122.063 186.891C122.052 187.12 122.083 187.344 122.161 187.563C122.24 187.776 122.354 187.969 122.505 188.141C122.661 188.313 122.844 188.443 123.047 188.542C123.255 188.641 123.474 188.698 123.703 188.708C123.932 188.719 124.156 188.688 124.375 188.615C124.589 188.537 124.781 188.422 124.953 188.266C125.125 188.115 125.26 187.932 125.359 187.724C125.458 187.521 125.51 187.302 125.526 187.073C125.552 186.609 126.38 175.792 138.193 175.792C147.109 175.797 149.438 184.266 149.823 191.37ZM155.135 76.9063C154.318 78.5365 153.193 80.6199 151.885 83.0261C147.271 91.5938 140.302 104.484 137.635 114.453C137.583 114.646 137.568 114.839 137.583 115.037L140.474 152.807C140.516 153.307 140.458 153.792 140.318 154.271C140.172 154.745 139.943 155.182 139.635 155.573C139.323 155.964 138.953 156.287 138.521 156.537C138.089 156.787 137.63 156.953 137.135 157.031L119.995 159.781C118.776 159.979 117.552 159.995 116.323 159.828C115.099 159.656 113.927 159.307 112.802 158.787C111.682 158.261 110.667 157.578 109.755 156.745C108.839 155.912 108.068 154.964 107.443 153.896L103.615 147.427C103.281 146.844 102.776 146.563 102.099 146.573C101.427 146.589 100.932 146.886 100.609 147.474L95.6823 156.448C95.3438 157.063 94.9271 157.625 94.4323 158.125C93.9375 158.63 93.3854 159.057 92.7708 159.406C92.1563 159.755 91.5104 160.016 90.8229 160.182C90.1354 160.354 89.4427 160.427 88.7344 160.401H88.6823L68.4219 160.448C68.0208 160.448 67.625 160.406 67.2344 160.328C66.8385 160.25 66.4583 160.136 66.0885 159.979C65.7188 159.823 65.3646 159.636 65.0365 159.412C64.7031 159.188 64.3958 158.938 64.1146 158.651C63.8333 158.365 63.5781 158.057 63.3594 157.724C63.1406 157.391 62.9531 157.037 62.8021 156.667C62.6563 156.292 62.5417 155.912 62.4688 155.521C62.3906 155.125 62.3594 154.729 62.3646 154.328L62.4583 146.578C62.5 146.432 62.526 146.281 62.5313 146.13C62.5313 145.969 62.5104 145.813 62.4688 145.662L62.5104 142.448C63.0052 142.328 63.3802 142.224 63.5938 142.172C64.5729 142.63 65.599 142.859 66.6771 142.859C68.7656 142.859 70.8438 141.943 72.6667 140.203C74.3906 138.479 75.6198 136.453 76.3438 134.125C78.4688 133.636 81.6146 131.802 81.3385 127.5C81.0677 123.198 77.1042 121.287 74.8021 120.849C74.2292 120.099 73.5521 119.469 72.7656 118.953C72.8854 106.109 75.5104 101.359 76.6302 99.9168C77.6615 100.24 78.7031 100.521 79.7604 100.755C80.8802 103.448 84.6302 111.198 92.2292 114.464L100.745 137.714C100.875 138.057 101.083 138.333 101.385 138.542C101.682 138.75 102.016 138.849 102.38 138.849C102.745 138.849 103.078 138.75 103.375 138.542C103.677 138.339 103.891 138.063 104.016 137.724L113.234 113.016C115.115 111.141 124.932 100.807 124.047 90.1043C128.141 86.797 131.344 82.7813 133.656 78.0574C135.208 74.8542 136.297 71.5001 136.927 68.0001C139.089 67.8386 146.453 67.8282 154.453 73.8334C154.682 74.0105 154.87 74.2188 155.026 74.4636C155.177 74.7032 155.286 74.9688 155.349 75.2501C155.406 75.5313 155.417 75.8126 155.38 76.099C155.339 76.3855 155.255 76.6511 155.12 76.9063H155.135Z" fill="#231F20"/>
<path d="M73.9062 52.3489C74.2031 52.3176 74.4479 52.1822 74.6302 51.9531C74.8177 51.7187 74.8958 51.4531 74.8645 51.1562C74.8333 50.8593 74.6979 50.6197 74.4635 50.4322C74.2343 50.2447 73.9687 50.1666 73.6718 50.2031C73.4895 50.2239 69.2708 50.7187 68.4531 54.7551C68.3958 55.052 68.4479 55.3176 68.6145 55.5676C68.7812 55.8176 69.0104 55.9687 69.302 56.0312C69.375 56.0416 69.4427 56.052 69.5156 56.052C69.776 56.052 70 55.9687 70.2031 55.8072C70.401 55.6458 70.526 55.4374 70.5781 55.1874C71.0781 52.7187 73.7812 52.3645 73.9062 52.3489Z" fill="#231F20"/>
<path d="M104.042 43.8177C104.271 43.8177 104.484 43.75 104.672 43.6146C104.766 43.5417 107.01 41.9792 109.047 43.4687C109.286 43.6406 109.557 43.7083 109.854 43.6615C110.151 43.6146 110.385 43.474 110.562 43.2344C110.74 42.9896 110.802 42.724 110.755 42.4271C110.714 42.1302 110.568 41.8958 110.328 41.7187C106.995 39.2708 103.542 41.7552 103.38 41.8646C103.193 42.0052 103.062 42.1823 102.995 42.4062C102.922 42.6302 102.927 42.849 103 43.0729C103.073 43.2917 103.203 43.474 103.391 43.6094C103.578 43.7448 103.792 43.8177 104.026 43.8177H104.042Z" fill="#231F20"/>
<path d="M128.724 115.688H116.693C116.464 115.688 116.245 115.729 116.031 115.818C115.818 115.906 115.63 116.031 115.469 116.193C115.307 116.354 115.182 116.542 115.094 116.755C115.005 116.969 114.958 117.188 114.958 117.417C114.958 117.646 115.005 117.865 115.094 118.078C115.182 118.292 115.307 118.479 115.469 118.641C115.63 118.802 115.818 118.927 116.031 119.016C116.245 119.104 116.464 119.146 116.693 119.146H128.724C128.953 119.146 129.177 119.104 129.385 119.016C129.599 118.927 129.786 118.802 129.948 118.641C130.109 118.479 130.24 118.292 130.323 118.078C130.411 117.865 130.458 117.646 130.458 117.417C130.458 117.188 130.411 116.969 130.323 116.755C130.24 116.542 130.109 116.354 129.948 116.193C129.786 116.031 129.599 115.906 129.385 115.818C129.177 115.729 128.953 115.688 128.724 115.688Z" fill="#231F20"/>
<path d="M111.573 52.8646C111.609 53.2031 111.583 53.5365 111.5 53.8646C111.417 54.1927 111.281 54.4844 111.089 54.75C110.896 55.0104 110.667 55.224 110.396 55.3854C110.13 55.5469 109.839 55.6406 109.531 55.6771C109.224 55.7083 108.922 55.6771 108.625 55.5781C108.328 55.4792 108.057 55.3177 107.812 55.1042C107.573 54.8854 107.375 54.6302 107.224 54.3281C107.068 54.026 106.974 53.7083 106.937 53.3698C106.901 53.026 106.927 52.6979 107.01 52.3698C107.094 52.0417 107.229 51.75 107.422 51.4844C107.609 51.2188 107.844 51.0104 108.109 50.849C108.38 50.6875 108.672 50.5938 108.979 50.5573C109.286 50.526 109.589 50.5573 109.885 50.6563C110.182 50.7552 110.453 50.9115 110.698 51.1302C110.937 51.349 111.135 51.6042 111.286 51.9063C111.437 52.2083 111.531 52.526 111.573 52.8646Z" fill="white"/>
<path d="M83.1146 61.4376C83.1511 61.7761 83.1302 62.1095 83.0469 62.4376C82.9636 62.7657 82.8281 63.0574 82.6354 63.323C82.4427 63.5834 82.2136 63.797 81.9427 63.9584C81.6719 64.1199 81.3854 64.2136 81.0781 64.2501C80.7709 64.2813 80.4688 64.2501 80.1719 64.1511C79.875 64.0522 79.6042 63.8907 79.3594 63.6772C79.1146 63.4584 78.9167 63.2032 78.7656 62.9011C78.6146 62.599 78.5209 62.2813 78.4844 61.9376C78.4479 61.599 78.4688 61.2657 78.5521 60.9428C78.6406 60.6147 78.7761 60.323 78.9688 60.0574C79.1563 59.7917 79.3854 59.5834 79.6563 59.422C79.9271 59.2605 80.2136 59.1615 80.5209 59.1303C80.8281 59.099 81.1302 59.1303 81.4323 59.2292C81.7292 59.3282 82 59.4845 82.2396 59.7032C82.4844 59.9167 82.6823 60.1772 82.8334 60.4792C82.9844 60.7813 83.0781 61.099 83.1146 61.4376Z" fill="white"/>
<path d="M101.219 83.2031C100.109 81.7968 97.6719 80.7291 96.3646 82.4843C96.2761 82.6041 96.4011 82.7448 96.5208 82.7552C98.0938 82.8854 99.6719 82.4896 101.099 83.3541C101.203 83.4218 101.286 83.2812 101.219 83.2031Z" fill="#231F20"/>
<path d="M33.7085 250.867V222.075C33.7085 221.382 34.0054 220.846 34.6043 220.471C35.2137 220.086 35.9377 219.888 36.771 219.888H52.9168C53.6095 219.888 54.1356 220.195 54.5002 220.804C54.8595 221.403 55.0418 222.112 55.0418 222.929C55.0418 223.804 54.8543 224.549 54.4793 225.159C54.1043 225.757 53.5835 226.054 52.9168 226.054H40.771V233.721H47.5627C48.2293 233.721 48.7502 233.992 49.1252 234.534C49.5106 235.075 49.7085 235.731 49.7085 236.492C49.7085 237.19 49.521 237.804 49.146 238.346C48.7814 238.888 48.2554 239.159 47.5627 239.159H40.771V246.867H52.9168C53.5835 246.867 54.1043 247.174 54.4793 247.784C54.8543 248.382 55.0418 249.117 55.0418 249.992C55.0418 250.815 54.8595 251.528 54.5002 252.138C54.1356 252.737 53.6095 253.034 52.9168 253.034H36.771C35.9377 253.034 35.2137 252.846 34.6043 252.471C34.0054 252.096 33.7085 251.565 33.7085 250.867Z" fill="#231F20"/>
<path d="M55.6296 247.596C55.6296 246.752 55.9421 245.903 56.5671 245.054C57.1921 244.211 57.9057 243.784 58.713 243.784C59.1713 243.784 59.6765 243.961 60.2338 244.304C60.7859 244.653 61.3015 245.044 61.7755 245.471C62.2442 245.888 62.9057 246.273 63.7546 246.617C64.5984 246.966 65.489 247.138 66.4213 247.138C67.5984 247.138 68.6296 246.888 69.5046 246.388C70.3796 245.888 70.8171 245.148 70.8171 244.159C70.8171 243.159 70.3223 242.284 69.338 241.534C68.364 240.773 67.1713 240.086 65.7546 239.471C64.3484 238.846 62.9421 238.153 61.5255 237.388C60.1088 236.612 58.9057 235.513 57.9213 234.096C56.9473 232.669 56.463 230.971 56.463 229.013C56.463 225.862 57.5932 223.508 59.8588 221.95C62.1192 220.398 64.8588 219.617 68.0671 219.617C68.8432 219.617 69.6609 219.669 70.5255 219.763C71.3848 219.846 72.3484 220.023 73.4213 220.284C74.5046 220.534 75.3848 220.95 76.0671 221.534C76.7442 222.107 77.088 222.799 77.088 223.617C77.088 224.398 76.838 225.211 76.338 226.054C75.838 226.903 75.1505 227.325 74.2755 227.325C73.9109 227.325 73.1401 227.044 71.963 226.471C70.7807 225.903 69.4838 225.617 68.0671 225.617C66.5515 225.617 65.4109 225.883 64.6505 226.409C63.9005 226.94 63.5255 227.575 63.5255 228.325C63.5255 229.023 63.8796 229.659 64.588 230.242C65.2963 230.815 66.1765 231.304 67.2338 231.721C68.3015 232.127 69.463 232.653 70.713 233.304C71.963 233.945 73.114 234.653 74.1713 235.429C75.2234 236.195 76.1088 237.273 76.8171 238.659C77.5359 240.049 77.9005 241.638 77.9005 243.429C77.9005 246.596 76.8484 249.07 74.7546 250.846C72.6713 252.612 69.9421 253.492 66.5671 253.492C63.6348 253.492 61.0776 252.888 58.9005 251.679C56.7182 250.471 55.6296 249.112 55.6296 247.596Z" fill="#231F20"/>
<path d="M88.646 250.867V223.429C88.646 222.221 88.9793 221.336 89.646 220.763C90.3231 220.179 91.1668 219.888 92.1668 219.888C93.5262 219.888 94.5627 220.096 95.271 220.513C95.9793 220.919 96.7762 221.888 97.6668 223.429L102.333 231.596L107 223.429C107.875 221.888 108.667 220.919 109.375 220.513C110.083 220.096 111.115 219.888 112.479 219.888C113.479 219.888 114.318 220.179 115 220.763C115.677 221.336 116.021 222.221 116.021 223.429V250.867C116.021 251.565 115.672 252.096 114.979 252.471C114.281 252.846 113.448 253.034 112.479 253.034C111.505 253.034 110.672 252.846 109.979 252.471C109.281 252.096 108.938 251.565 108.938 250.867V233.867L104.583 241.284C104.068 242.174 103.281 242.617 102.229 242.617C101.198 242.617 100.464 242.174 100.021 241.284L95.7085 233.409V250.867C95.7085 251.565 95.3595 252.096 94.6668 252.471C93.9689 252.846 93.1356 253.034 92.1668 253.034C91.2085 253.034 90.3804 252.846 89.6877 252.471C88.9897 252.096 88.646 251.565 88.646 250.867Z" fill="#231F20"/>
<path d="M117.742 250.138C117.742 250.044 117.768 249.877 117.825 249.638L126.263 221.971C126.497 221.221 127.044 220.648 127.909 220.242C128.768 219.825 129.752 219.617 130.867 219.617C131.992 219.617 132.982 219.825 133.846 220.242C134.706 220.648 135.263 221.221 135.513 221.971L143.992 249.638C144.044 249.877 144.075 250.044 144.075 250.138C144.075 250.919 143.581 251.596 142.596 252.179C141.622 252.752 140.601 253.034 139.534 253.034C138.242 253.034 137.471 252.596 137.221 251.721L135.68 246.054H126.117L124.575 251.721C124.336 252.596 123.565 253.034 122.263 253.034C121.206 253.034 120.185 252.752 119.2 252.179C118.226 251.596 117.742 250.919 117.742 250.138ZM127.575 240.617H134.2L130.888 228.471L127.575 240.617Z" fill="#231F20"/>
<path d="M144.388 219.888C144.388 219.419 144.627 219.023 145.117 218.7C145.601 218.383 146.169 218.221 146.825 218.221C147.492 218.221 148.075 218.383 148.575 218.7C149.075 219.023 149.325 219.419 149.325 219.888L148.867 225.971C148.867 226.461 148.69 226.867 148.346 227.2C147.997 227.534 147.492 227.7 146.825 227.7C146.169 227.7 145.679 227.534 145.346 227.2C145.013 226.867 144.846 226.461 144.846 225.971L144.388 219.888Z" fill="#231F20"/>
<path d="M149.653 250.138C149.653 250.044 149.679 249.877 149.736 249.638L158.174 221.971C158.408 221.221 158.955 220.648 159.819 220.242C160.679 219.825 161.663 219.617 162.778 219.617C163.903 219.617 164.892 219.825 165.757 220.242C166.616 220.648 167.174 221.221 167.424 221.971L175.903 249.638C175.955 249.877 175.986 250.044 175.986 250.138C175.986 250.919 175.491 251.596 174.507 252.179C173.533 252.752 172.512 253.034 171.444 253.034C170.153 253.034 169.382 252.596 169.132 251.721L167.59 246.054H158.028L156.486 251.721C156.247 252.596 155.476 253.034 154.174 253.034C153.116 253.034 152.096 252.752 151.111 252.179C150.137 251.596 149.653 250.919 149.653 250.138ZM159.486 240.617H166.111L162.799 228.471L159.486 240.617Z" fill="#231F20"/>
<path d="M177.715 250.867V223.429C177.715 222.221 178.049 221.336 178.715 220.763C179.392 220.179 180.236 219.888 181.236 219.888C182.596 219.888 183.632 220.096 184.34 220.513C185.049 220.919 185.846 221.888 186.736 223.429L191.403 231.596L196.069 223.429C196.944 221.888 197.736 220.919 198.444 220.513C199.153 220.096 200.184 219.888 201.549 219.888C202.549 219.888 203.387 220.179 204.069 220.763C204.747 221.336 205.09 222.221 205.09 223.429V250.867C205.09 251.565 204.741 252.096 204.049 252.471C203.351 252.846 202.517 253.034 201.549 253.034C200.575 253.034 199.741 252.846 199.049 252.471C198.351 252.096 198.007 251.565 198.007 250.867V233.867L193.653 241.284C193.137 242.174 192.351 242.617 191.299 242.617C190.267 242.617 189.533 242.174 189.09 241.284L184.778 233.409V250.867C184.778 251.565 184.429 252.096 183.736 252.471C183.038 252.846 182.205 253.034 181.236 253.034C180.278 253.034 179.45 252.846 178.757 252.471C178.059 252.096 177.715 251.565 177.715 250.867Z" fill="#231F20"/>
<path d="M15.7448 235.229L16.3489 253.229" stroke="black" stroke-width="5.05067"/>
<path d="M0.890625 223.911L15.2969 240.958C22.6354 225.703 31.6198 211.667 46.0625 198.344C35.2552 204.563 23.3385 216.37 13.1615 230.984L0.890625 223.911Z" fill="#139E1C"/>
<path d="M0.890625 223.911L15.2969 240.958C22.6354 225.703 31.6198 211.667 46.0625 198.344C35.2552 204.563 23.3386 216.37 13.1615 230.984L0.890625 223.911Z" stroke="#007F00" stroke-width="1.00566"/>
</svg>
